<svg width="673" height="739" fill="none" xmlns="http://www.w3.org/2000/svg"><g clip-path="url(#clip0)"><path d="M467 149.804c-46.621-7.44-99.71-11.41-155-11.41-50.601 0-99.351 3.32-142.98 9.58.01-.67.02-1.34.049-2.01A149.003 149.003 0 01318.913 1.397 149 149 0 01466.98 147.784c.01.68.02 1.35.02 2.02z" fill="#F9A826"/><path opacity=".1" d="M337.55 1.341A149.047 149.047 0 00168.619 144.57c-.03.67-.04 1.34-.05 2.01 12.962-1.86 26.385-3.453 40.165-4.784A149.026 149.026 0 01337.55 1.341z" fill="#212121"/><path d="M532.18 161.624a599.798 599.798 0 00-65.2-13.84 943.328 943.328 0 00-108.74-10.45 1133.585 1133.585 0 00-83.01-.34 973.131 973.131 0 00-106.16 8.97 624.176 624.176 0 00-77.25 15.66C32.61 177.994 0 199.934 0 223.394s32.61 45.4 91.82 61.77c41.64 11.52 92.98 19.37 148.92 22.97 23.09 1.5 46.96 2.26 71.26 2.26 24.38 0 48.33-.77 71.49-2.27 50.91-3.29 98.01-10.1 137.43-20 .21-.06.41-.11.62-.16 2.66-.66 5.28-1.35 7.87-2.04.93-.26 1.85-.51 2.77-.76a.9.9 0 01.16-.05c.88-.24 1.75-.49 2.62-.73 1.74-.5 3.46-.99 5.15-1.5.08-.02.15-.04.22-.06 1.47-.44 2.91-.88 4.34-1.32 1.17-.37 2.33-.73 3.48-1.1.84-.27 1.67-.54 2.49-.81.6-.2 1.19-.39 1.77-.59.79-.26 1.58-.53 2.36-.8.33-.11.66-.22.98-.34.75-.25 1.48-.51 2.21-.77.79-.28 1.58-.57 2.36-.85.65-.23 1.3-.47 1.94-.71.54-.21 1.07-.41 1.61-.61 1.47-.55 2.91-1.121 4.33-1.68.71-.29 1.42-.57 2.12-.86.69-.28 1.39-.57 2.07-.86 1.12-.47 2.22-.94 3.3-1.41.52-.24 1.05-.47 1.56-.69.39-.18.77-.35 1.16-.53.28-.12.56-.25.83-.38 1.01-.46 2.01-.93 2.99-1.4 3.76-1.8 7.27-3.64 10.53-5.52 20.45-11.71 31.24-24.7 31.24-38.2 0-23.46-32.61-45.4-91.82-61.77zm-.54 121.62c-41.69 11.53-93.17 19.38-149.26 22.95-22.81 1.45-46.39 2.2-70.38 2.2-23.91 0-47.41-.74-70.15-2.19-56.18-3.56-107.74-11.41-149.49-22.96C34.09 267.124 2 245.874 2 223.394c.003-1.987.252-3.965.74-5.89 5.1-20.28 36.47-39.26 89.62-53.96a623.705 623.705 0 0176.66-15.57 975.828 975.828 0 01106.8-9c11.92-.39 23.98-.584 36.18-.58 15.41 0 30.65.31 45.63.91a941.083 941.083 0 01109.37 10.5 598.485 598.485 0 0164.64 13.74c53.14 14.7 84.5 33.67 89.61 53.94.496 1.93.748 3.916.75 5.91 0 22.48-32.09 43.73-90.36 59.85z" fill="#3F3D56"/><path d="M623.43 224.304c0 13.36-11.011 26-30.671 37.29-3.269 1.88-6.789 3.72-10.53 5.52-.98.47-1.98.94-2.989 1.4-.27.13-.551.26-.83.38-.39.18-.77.35-1.16.53-.51.22-1.04.45-1.561.69-1.08.47-2.18.94-3.299 1.41-.681.29-1.381.58-2.071.86-.699.29-1.409.57-2.119.86-1.42.56-2.861 1.13-4.33 1.68-.54.2-1.071.4-1.611.61-.639.24-1.289.48-1.94.71-.779.28-1.569.57-2.36.85-.73.26-1.459.52-2.209.77-.32.12-.65.23-.98.34-.78.27-1.57.54-2.36.8-.58.2-1.17.39-1.77.59-.821.27-1.651.54-2.491.81-1.149.37-2.31.73-3.48 1.1-1.429.44-2.87.88-4.339 1.32-.071.02-.141.04-.221.06-1.69.51-3.409 1-5.15 1.5-.87.24-1.739.49-2.62.73a.889.889 0 00-.159.05c-.921.25-1.841.5-2.77.76-2.58.68-5.21 1.37-7.87 2.04-.21.05-.411.1-.621.16-38.35 9.58-85.4 16.56-137.469 19.93-22.81 1.47-46.591 2.25-71.02 2.25-24.65 0-48.631-.79-71.62-2.29-137.241-8.95-239.38-43.03-239.38-83.71.01-2.476.388-4.936 1.12-7.3.06.17.12.33.19.5 14.27 37.48 115.54 67.77 246.94 75.16 20.13 1.14 40.98 1.73 62.32 1.73 21.43 0 42.359-.6 62.569-1.74 131.29-7.42 232.461-37.72 246.681-75.17.24-.6.45-1.2.629-1.8a25.303 25.303 0 011.551 8.62zM91.67 213.54c-16.643 0-34.331-3.581-34.331-10.217 0-6.636 17.688-10.217 34.33-10.217 16.643 0 34.331 3.581 34.331 10.217 0 6.636-17.688 10.217-34.33 10.217zm0-18.434c-19.053 0-32.331 4.331-32.331 8.217s13.278 8.217 32.33 8.217c19.054 0 32.331-4.331 32.331-8.217s-13.277-8.217-32.33-8.217z" fill="#3F3D56"/><path d="M162.669 260.54c-16.642 0-34.33-3.581-34.33-10.217 0-6.636 17.688-10.217 34.33-10.217 16.643 0 34.331 3.581 34.331 10.217 0 6.636-17.688 10.217-34.331 10.217zm0-18.434c-19.052 0-32.33 4.331-32.33 8.217s13.278 8.217 32.33 8.217c19.053 0 32.331-4.331 32.331-8.217s-13.278-8.217-32.331-8.217zM531.669 213.54c-16.642 0-34.33-3.581-34.33-10.217 0-6.636 17.688-10.217 34.33-10.217 16.643 0 34.331 3.581 34.331 10.217 0 6.636-17.688 10.217-34.331 10.217zm0-18.434c-19.053 0-32.33 4.331-32.33 8.217s13.277 8.217 32.33 8.217c19.053 0 32.331-4.331 32.331-8.217s-13.278-8.217-32.331-8.217zM460.669 260.54c-16.642 0-34.33-3.581-34.33-10.217 0-6.636 17.688-10.217 34.33-10.217 16.643 0 34.331 3.581 34.331 10.217 0 6.636-17.688 10.217-34.331 10.217zm0-18.434c-19.053 0-32.33 4.331-32.33 8.217s13.277 8.217 32.33 8.217c19.053 0 32.331-4.331 32.331-8.217s-13.278-8.217-32.331-8.217zM311.669 282.54c-16.642 0-34.33-3.581-34.33-10.217 0-6.636 17.688-10.217 34.33-10.217 16.643 0 34.331 3.581 34.331 10.217 0 6.636-17.688 10.217-34.331 10.217zm0-18.434c-19.053 0-32.33 4.331-32.33 8.217s13.277 8.217 32.33 8.217c19.053 0 32.331-4.331 32.331-8.217s-13.278-8.217-32.331-8.217z" fill="#3F3D56"/><path d="M336.978 492.717c23.203 0 42.012-18.81 42.012-42.012 0-23.203-18.809-42.013-42.012-42.013s-42.012 18.81-42.012 42.013c0 23.202 18.809 42.012 42.012 42.012z" fill="#F0F0F0"/><path d="M321.002 478.306l-20.447 10.24 5.715 11.412 20.447-10.239-5.715-11.413z" fill="#F0F0F0"/><path d="M308.965 498.801c1.213-1.839-1.78-5.952-6.684-9.185-4.904-3.234-9.862-4.364-11.075-2.525-1.212 1.839 1.78 5.951 6.684 9.185 4.904 3.233 9.863 4.364 11.075 2.525zM352.953 478.306l-5.715 11.413 20.447 10.239 5.715-11.412-20.447-10.24z" fill="#F0F0F0"/><path d="M376.065 496.276c4.904-3.234 7.896-7.346 6.684-9.185-1.213-1.839-6.171-.709-11.075 2.525-4.905 3.233-7.897 7.346-6.685 9.185 1.213 1.839 6.172.708 11.076-2.525z" fill="#F0F0F0"/><path d="M334.036 454.787c7.93 0 14.359-6.429 14.359-14.359s-6.429-14.359-14.359-14.359-14.358 6.429-14.358 14.359 6.428 14.359 14.358 14.359z" fill="#212121"/><path d="M337.53 437.675c1.861-1.861 1.85-4.89-.024-6.765-1.875-1.874-4.903-1.885-6.765-.023-1.861 1.861-1.85 4.889.024 6.764 1.875 1.874 4.903 1.885 6.765.024z" fill="#F0F0F0"/><path d="M370.119 405c.632-15.554-12.773-28.728-29.941-29.425-17.167-.698-31.596 11.346-32.228 26.899-.632 15.554 11.302 19.088 28.469 19.785 17.168.698 33.068-1.706 33.7-17.259z" fill="#F9A826"/><path d="M394.337 472.704c2.763-2.373-1.122-11.432-8.679-20.234-7.557-8.803-15.923-14.016-18.687-11.643-2.763 2.372 1.123 11.431 8.68 20.234 7.556 8.802 15.923 14.015 18.686 11.643zM298.422 461.061c7.557-8.803 11.443-17.862 8.68-20.235-2.764-2.372-11.13 2.841-18.687 11.644-7.557 8.802-11.442 17.861-8.679 20.234 2.763 2.372 11.13-2.841 18.686-11.643z" fill="#F0F0F0"/><path d="M348.516 467.261a9.57 9.57 0 01-7.703 11.132 9.58 9.58 0 01-7.162-1.546 9.577 9.577 0 01-3.97-6.158l-.004-.018c-.941-5.202 3.081-7.043 8.283-7.985 5.202-.942 9.614-.628 10.556 4.575z" fill="#212121"/><path d="M266 495.394a2 2 0 01-2-2v-118a2.001 2.001 0 114 0v118a2 2 0 01-2 2zM236 601.394a2 2 0 01-2-2v-86a2.001 2.001 0 114 0v86a2 2 0 01-2 2zM313 530.394a2 2 0 01-2-2v-118a2.001 2.001 0 114 0v118a2 2 0 01-2 2zM284 615.394a2 2 0 01-2-2v-48a2.001 2.001 0 114 0v48a2 2 0 01-2 2zM325 369.394a2 2 0 01-2-2v-48a2.001 2.001 0 114 0v48a2 2 0 01-2 2zM225 390.394a2 2 0 01-2-2v-48a2.001 2.001 0 114 0v48a2 2 0 01-2 2zM399 395.394a2 2 0 01-2-2v-48a2.001 2.001 0 114 0v48a2 2 0 01-2 2zM395 545.394a2 2 0 01-2-2v-58a2.001 2.001 0 114 0v58a2 2 0 01-2 2zM355 596.394a2 2 0 01-2-2v-86a2.001 2.001 0 114 0v86a2 2 0 01-2 2zM363 449.394a2 2 0 01-2-2v-118a2.001 2.001 0 114 0v118a2 2 0 01-2 2z" fill="#CCC"/><path d="M608.193 700.491c2.863-2.397-1.006-11.732-8.64-20.85-7.635-9.119-16.145-14.568-19.008-12.171-2.862 2.397 1.006 11.732 8.641 20.85 7.635 9.119 16.145 14.568 19.007 12.171z" fill="#F0F0F0"/><path d="M589.42 690.121c7.521-22.565-4.674-46.955-27.239-54.476-22.564-7.522-46.954 4.673-54.476 27.238-7.522 22.565 4.673 46.955 27.238 54.476 22.565 7.522 46.955-4.673 54.477-27.238z" fill="#F0F0F0"/><path d="M566.791 710.302h-13.084v23.441h13.084v-23.441zM540.624 710.302H527.54v23.441h13.084v-23.441z" fill="#F0F0F0"/><path d="M555.888 738.105c6.021 0 10.903-1.83 10.903-4.089 0-2.258-4.882-4.088-10.903-4.088-6.022 0-10.904 1.83-10.904 4.088 0 2.259 4.882 4.089 10.904 4.089zM529.721 737.56c6.021 0 10.903-1.83 10.903-4.089 0-2.258-4.882-4.088-10.903-4.088-6.022 0-10.904 1.83-10.904 4.088 0 2.259 4.882 4.089 10.904 4.089z" fill="#F0F0F0"/><path d="M535.04 622.365c3.845-15.487 20.82-24.6 37.914-20.356 17.095 4.245 27.835 20.241 23.989 35.728-3.845 15.487-16.604 15.536-33.698 11.292-17.094-4.245-32.051-11.177-28.205-26.664z" fill="#CCC"/><path d="M519.511 665.747c1.6-3.373-5.814-10.239-16.56-15.336-10.745-5.096-20.753-6.493-22.353-3.119-1.6 3.373 5.814 10.239 16.559 15.335 10.746 5.097 20.754 6.493 22.354 3.12z" fill="#F0F0F0"/><path d="M542.123 681.774c7.93 0 14.359-6.429 14.359-14.359s-6.429-14.358-14.359-14.358-14.358 6.428-14.358 14.358c0 7.93 6.428 14.359 14.358 14.359z" fill="#212121"/><path d="M536.223 667.054a4.786 4.786 0 100-9.573 4.786 4.786 0 000 9.573z" fill="#F0F0F0"/><path d="M542 703.394a6 6 0 100-12 6 6 0 000 12z" fill="#212121"/><path d="M671.531 738.394h-236a1.003 1.003 0 01-1-1 1.002 1.002 0 011-1h236a1 1 0 110 2z" fill="#3F3D56"/></g><defs><clipPath id="clip0"><path fill="#fff" d="M0 0h672.531v738.394H0z"/></clipPath></defs></svg>