<svg viewBox="0 0 24 24" xmlns="http://www.w3.org/2000/svg"><circle cx="12" cy="12" fill="#EECB00" r="5"/><path d="M21 13h-1a1 1 0 010-2h1a1 1 0 010 2zM4 13H3a1 1 0 010-2h1a1 1 0 010 2zM17.66 7.34a1 1 0 01-.66-.29 1 1 0 010-1.41l.71-.71a1 1 0 111.41 1.41l-.71.71a1 1 0 01-.75.29zM5.64 19.36a1 1 0 01-.71-.29 1 1 0 010-1.41l.71-.66a1 1 0 011.41 1.41l-.71.71a1 1 0 01-.7.24zM12 5a1 1 0 01-1-1V3a1 1 0 012 0v1a1 1 0 01-1 1zM12 22a1 1 0 01-1-1v-1a1 1 0 012 0v1a1 1 0 01-1 1zM6.34 7.34a1 1 0 01-.7-.29l-.71-.71a1 1 0 011.41-1.41l.71.71a1 1 0 010 1.41 1 1 0 01-.71.29zM18.36 19.36a1 1 0 01-.7-.29l-.66-.71A1 1 0 0118.36 17l.71.71a1 1 0 010 1.41 1 1 0 01-.71.24z" fill="#EECB00"/></svg>